<?xml version="1.0" encoding="utf-8"?>
<!-- Generator: Adobe Illustrator 19.0.0, SVG Export Plug-In . SVG Version: 6.00 Build 0)  -->
<svg version="1.1" xmlns="http://www.w3.org/2000/svg" xmlns:xlink="http://www.w3.org/1999/xlink" x="0px" y="0px"
	 viewBox="0 0 495 390" style="enable-background:new 0 0 495 390;" xml:space="preserve">
<style type="text/css">
	.st0{fill:#2D2D2D;}
	.st1{fill:#4F4F4F;}
	.st2{fill:#636363;}
	.st3{fill:#BFBFBF;}
	.st4{fill:#DBDBDB;}
	.st5{fill:#AAAAAA;}
	.st6{fill:#B2B2B2;}
	.st7{fill:#FFFFFF;}
</style>
<g id="XMLID_44_">
	<path id="XMLID_35_" class="st0" d="M495,275H0V21.5C0,9.6,9.6,0,21.5,0h452C485.4,0,495,9.6,495,21.5V275z"/>
	<rect id="XMLID_36_" x="25" y="25" class="st1" width="444.9" height="232.6"/>
	<polyline id="XMLID_38_" class="st2" points="25,256.7 25,25 470,25 	"/>
	<path id="XMLID_37_" class="st3" d="M463.5,317h-432C14.1,317,0,302.9,0,285.5V275h495v10.5C495,302.9,480.9,317,463.5,317z"/>
	<path id="XMLID_40_" class="st4" d="M468,310H27c-14.9,0-27-12.1-27-27v-8h495v8C495,297.9,482.9,310,468,310z"/>
	<rect id="XMLID_42_" x="196" y="317" class="st4" width="131" height="38"/>
	<rect id="XMLID_43_" x="196" y="317" class="st5" width="131" height="13"/>
	<polygon id="XMLID_70_" class="st6" points="347.6,390 327,355 196,355 175.9,390 	"/>
	<g id="XMLID_121_">
		<path id="XMLID_122_" class="st7" d="M85.4,132.4l-10.2,19.3v9.1h-7.4v-8.9l-10.4-19.5h7.4l6.7,12.2l6.5-12.2H85.4z"/>
		<path id="XMLID_124_" class="st7" d="M101.8,140c1.8,0.9,3.2,2.2,4.2,3.9c1,1.7,1.5,3.6,1.5,5.8c0,2.2-0.5,4.2-1.5,5.9
			c-1,1.7-2.4,3-4.2,3.9c-1.8,0.9-3.9,1.4-6.3,1.4c-2.4,0-4.5-0.5-6.3-1.4c-1.8-0.9-3.2-2.2-4.2-3.9c-1-1.7-1.5-3.6-1.5-5.9
			c0-2.2,0.5-4.2,1.5-5.8c1-1.7,2.4-3,4.2-3.9c1.8-0.9,3.9-1.4,6.3-1.4C97.9,138.6,100,139.1,101.8,140z M92.1,145.9
			c-0.9,1-1.3,2.3-1.3,3.9c0,1.6,0.4,3,1.3,4s2,1.5,3.4,1.5c1.4,0,2.6-0.5,3.4-1.5s1.3-2.3,1.3-4c0-1.6-0.4-2.9-1.3-3.9
			c-0.9-1-2-1.5-3.4-1.5C94.1,144.4,93,144.9,92.1,145.9z"/>
		<path id="XMLID_127_" class="st7" d="M132.5,138.8v21.9h-7.2v-3.6c-1.5,2.5-3.8,3.8-7,3.9c-2.4,0-4.3-0.8-5.7-2.3
			c-1.4-1.5-2.1-3.5-2.1-6.1v-13.8h7.2v11.8c0,1.2,0.3,2.2,1,2.9c0.6,0.7,1.5,1.1,2.6,1.1c1.3,0,2.3-0.5,3-1.4
			c0.7-0.9,1.1-2.1,1.1-3.5v-10.8H132.5z"/>
		<path id="XMLID_129_" class="st7" d="M148.1,139.6c1.2-0.7,2.6-1,4.1-1v6.6c-0.2,0-0.6,0-1.1,0c-1.7,0-3.1,0.4-4.1,1.2
			c-1.1,0.8-1.7,1.9-1.8,3.3v11.2H138v-21.9h7.2v3.6C145.9,141.2,146.9,140.2,148.1,139.6z"/>
		<path id="XMLID_131_" class="st7" d="M154.8,146h10.7v4.6h-10.7V146z"/>
		<path id="XMLID_133_" class="st7" d="M205.2,132.4h7.6l-9.6,28.3h-7.6l-5.4-19.3l-5.5,19.3h-7.6l-9.5-28.3h8l5.6,20.7l5.6-20.7
			h7.2l5.7,20.7L205.2,132.4z"/>
		<path id="XMLID_135_" class="st7" d="M230.8,141.7c1.9,2.1,2.9,5,2.9,8.6c0,0.6,0,1,0,1.3h-15.2c0.3,1.2,1,2.2,1.8,2.8
			c0.9,0.7,1.9,1,3.2,1c0.9,0,1.9-0.2,2.7-0.6c0.9-0.4,1.7-0.9,2.4-1.7l3.8,3.8c-1.1,1.3-2.5,2.2-4.1,2.9c-1.6,0.7-3.4,1-5.4,1
			c-2.3,0-4.4-0.5-6.1-1.4c-1.8-0.9-3.1-2.2-4-3.9s-1.4-3.6-1.4-5.8c0-2.2,0.5-4.2,1.4-5.9c0.9-1.7,2.3-3,4-4s3.7-1.4,6-1.4
			C226.1,138.6,228.9,139.6,230.8,141.7z M226.7,147.8c0-1.3-0.4-2.3-1.1-3.1s-1.7-1.2-2.9-1.2c-1.1,0-2.1,0.4-2.8,1.1
			c-0.8,0.8-1.3,1.8-1.5,3.1H226.7z"/>
		<path id="XMLID_138_" class="st7" d="M256.5,140c1.5,0.9,2.7,2.3,3.6,4c0.8,1.7,1.3,3.7,1.3,5.9c0,2.2-0.4,4.1-1.2,5.8
			c-0.8,1.7-2,3-3.5,3.9s-3.3,1.4-5.3,1.4c-1.4,0-2.6-0.3-3.7-0.8s-2.1-1.3-2.8-2.3v2.8h-7.2v-30h7.2v11c1.6-2,3.7-3.1,6.4-3.1
			C253.2,138.6,255,139.1,256.5,140z M252.8,153.6c0.9-1,1.3-2.3,1.3-3.9c0-1.6-0.4-2.9-1.3-3.9c-0.9-1-2-1.5-3.4-1.5
			c-1.4,0-2.5,0.5-3.4,1.5c-0.9,1-1.3,2.3-1.3,3.9c0,1.6,0.4,2.9,1.3,3.9c0.9,1,2,1.5,3.4,1.5C250.8,155.1,251.9,154.6,252.8,153.6z
			"/>
		<path id="XMLID_141_" class="st7" d="M272.7,143.5c-0.6,0-1.1,0.1-1.5,0.3c-0.4,0.2-0.6,0.6-0.6,1c0,0.5,0.3,0.9,0.9,1.2
			s1.5,0.6,2.8,1c1.6,0.5,2.9,0.9,3.9,1.4c1,0.4,1.9,1.1,2.7,2c0.8,0.9,1.1,2.1,1.1,3.5c0,2.2-0.9,3.9-2.6,5.2s-3.9,1.9-6.7,1.9
			c-1.9,0-3.6-0.3-5.3-0.8c-1.7-0.5-3.2-1.3-4.5-2.3l2.3-4.6c1.2,0.9,2.5,1.5,3.9,2c1.4,0.5,2.6,0.7,3.9,0.7c0.7,0,1.3-0.1,1.7-0.3
			c0.4-0.2,0.6-0.6,0.6-1c0-0.5-0.3-1-0.9-1.3s-1.6-0.6-2.8-1c-1.5-0.5-2.8-0.9-3.8-1.4c-1-0.4-1.9-1.1-2.6-2
			c-0.7-0.9-1.1-2-1.1-3.5c0-2.2,0.8-3.9,2.5-5.2s3.8-1.9,6.5-1.9c1.6,0,3.2,0.2,4.7,0.6c1.5,0.4,3,1.1,4.4,1.9l-2.4,4.7
			C276.8,144.3,274.5,143.5,272.7,143.5z"/>
		<path id="XMLID_143_" class="st7" d="M292.2,129.8c0.7,0.7,1.1,1.6,1.1,2.8c0,1.1-0.4,2-1.1,2.7c-0.7,0.7-1.6,1.1-2.7,1.1
			c-1.1,0-2-0.4-2.7-1.1s-1.1-1.6-1.1-2.7c0-1.1,0.4-2.1,1.1-2.8s1.6-1.1,2.7-1.1C290.6,128.8,291.5,129.1,292.2,129.8z M286,138.8
			h7.2v21.9H286V138.8z"/>
		<path id="XMLID_146_" class="st7" d="M312.8,159.6c-0.8,0.5-1.7,0.8-2.8,1.1s-2.1,0.4-3.2,0.4c-2.2,0-3.9-0.6-5.2-1.9
			c-1.3-1.2-2-3-2-5.1v-9.4h-3v-4.8h3v-6.1h7.2v6.1h5.7v4.8h-5.7v8.2c0,1.5,0.6,2.3,1.9,2.3c0.8,0,1.7-0.2,2.8-0.7L312.8,159.6z"/>
		<path id="XMLID_148_" class="st7" d="M334,141.7c1.9,2.1,2.9,5,2.9,8.6c0,0.6,0,1,0,1.3h-15.2c0.3,1.2,1,2.2,1.8,2.8
			c0.9,0.7,1.9,1,3.2,1c0.9,0,1.9-0.2,2.7-0.6c0.9-0.4,1.7-0.9,2.4-1.7l3.8,3.8c-1.1,1.3-2.5,2.2-4.1,2.9c-1.6,0.7-3.4,1-5.4,1
			c-2.3,0-4.4-0.5-6.1-1.4c-1.8-0.9-3.1-2.2-4-3.9s-1.4-3.6-1.4-5.8c0-2.2,0.5-4.2,1.4-5.9c0.9-1.7,2.3-3,4-4s3.7-1.4,6-1.4
			C329.3,138.6,332.1,139.6,334,141.7z M329.9,147.8c0-1.3-0.4-2.3-1.1-3.1s-1.7-1.2-2.9-1.2c-1.1,0-2.1,0.4-2.8,1.1
			c-0.8,0.8-1.3,1.8-1.5,3.1H329.9z"/>
		<path id="XMLID_151_" class="st7" d="M345.2,155c0.6,0.6,1,1.5,1,2.5c0,1-0.3,1.9-1,2.5s-1.5,1-2.5,1c-1,0-1.8-0.3-2.5-1
			c-0.6-0.7-1-1.5-1-2.5c0-1,0.3-1.9,1-2.5c0.6-0.6,1.5-1,2.5-1C343.7,154,344.6,154.3,345.2,155z"/>
		<path id="XMLID_153_" class="st7" d="M360.2,144.5c-1.3,0-2.3,0.5-3.2,1.5s-1.2,2.3-1.2,3.8c0,1.6,0.4,2.9,1.2,3.8
			c0.8,1,1.9,1.5,3.2,1.5c2,0,3.4-0.8,4.3-2.5l5.3,3c-0.9,1.7-2.2,3-3.9,3.9c-1.7,0.9-3.7,1.4-6.1,1.4c-2.2,0-4.2-0.5-5.9-1.4
			c-1.7-0.9-3-2.2-3.9-3.9s-1.4-3.6-1.4-5.8c0-2.2,0.5-4.2,1.4-5.9c0.9-1.7,2.3-3,4-4s3.7-1.4,5.9-1.4c2.2,0,4.1,0.5,5.8,1.4
			c1.7,0.9,3,2.2,4,3.8l-5.2,3C363.5,145.3,362.1,144.5,360.2,144.5z"/>
		<path id="XMLID_155_" class="st7" d="M388.9,140c1.8,0.9,3.2,2.2,4.2,3.9c1,1.7,1.5,3.6,1.5,5.8c0,2.2-0.5,4.2-1.5,5.9
			c-1,1.7-2.4,3-4.2,3.9c-1.8,0.9-3.9,1.4-6.3,1.4c-2.4,0-4.5-0.5-6.3-1.4c-1.8-0.9-3.2-2.2-4.2-3.9c-1-1.7-1.5-3.6-1.5-5.9
			c0-2.2,0.5-4.2,1.5-5.8c1-1.7,2.4-3,4.2-3.9c1.8-0.9,3.9-1.4,6.3-1.4C385,138.6,387.1,139.1,388.9,140z M379.3,145.9
			c-0.9,1-1.3,2.3-1.3,3.9c0,1.6,0.4,3,1.3,4s2,1.5,3.4,1.5c1.4,0,2.6-0.5,3.4-1.5s1.3-2.3,1.3-4c0-1.6-0.4-2.9-1.3-3.9
			c-0.9-1-2-1.5-3.4-1.5C381.3,144.4,380.1,144.9,379.3,145.9z"/>
		<path id="XMLID_158_" class="st7" d="M433.2,140.8c1.4,1.5,2.1,3.5,2.1,6.1v13.8h-7.2V149c0-1.2-0.3-2.2-1-2.9s-1.5-1.1-2.6-1.1
			c-1.3,0-2.3,0.5-3,1.4c-0.7,0.9-1.1,2.1-1.1,3.5v10.8h-7.2V149c0-1.2-0.3-2.2-1-2.9s-1.5-1.1-2.6-1.1c-1.3,0-2.3,0.5-3,1.4
			c-0.8,0.9-1.1,2.1-1.1,3.5v10.8h-7.2v-21.9h7.2v3.6c0.8-1.3,1.7-2.2,2.9-2.9s2.6-1,4.2-1c1.8,0,3.3,0.4,4.6,1.3
			c1.3,0.9,2.2,2.1,2.7,3.6c0.7-1.6,1.7-2.8,3-3.7c1.3-0.8,2.8-1.2,4.6-1.2C429.9,138.5,431.8,139.3,433.2,140.8z"/>
	</g>
	<g id="XMLID_118_">
		<g id="XMLID_180_">
			<path id="XMLID_181_" class="st7" d="M440.1,116.3h7.2V163h-7.2V116.3z"/>
		</g>
	</g>
</g>
</svg>
