<?xml version="1.0" encoding="utf-8"?>
<!-- Generator: Adobe Illustrator 19.0.0, SVG Export Plug-In . SVG Version: 6.00 Build 0)  -->
<svg version="1.1" id="Layer_1" xmlns="http://www.w3.org/2000/svg" xmlns:xlink="http://www.w3.org/1999/xlink" x="0px" y="0px"
	 viewBox="0 0 227.2 176.6" style="enable-background:new 0 0 227.2 176.6;" xml:space="preserve">
<style type="text/css">
	.st0{fill:#EF6767;stroke:#EF6767;stroke-width:3;stroke-miterlimit:10;}
	.st1{fill:#EDEDED;stroke:#c45454;stroke-width:2;stroke-miterlimit:10;}
</style>
<path id="XMLID_77_" class="st0" d="M220.4,36c14.3,59.2-22.1,118.8-81.3,133.1C79.9,183.5,20.3,147.1,6,87.8s40.4-43,99.6-57.3
	S206.1-23.2,220.4,36z"/>
<g id="XMLID_84_">
	<path id="XMLID_94_" class="st1" d="M186.6,126.6c0,5.9-5.2,10.6-11.5,10.6H136c0,5.7,4.6,10.4,4.6,12.8c0,2.3-2.1,4.3-4.6,4.3
		H99.3c-2.5,0-4.6-1.9-4.6-4.3c0-2.5,4.6-7,4.6-12.8H60.2c-6.3,0-11.5-4.8-11.5-10.6V54.3c0-5.9,5.2-10.6,11.5-10.6h114.9
		c6.3,0,11.5,4.8,11.5,10.6V126.6z M177.4,54.3c0-1.1-1.1-2.1-2.3-2.1H60.2c-1.2,0-2.3,1-2.3,2.1v55.3c0,1.1,1.1,2.1,2.3,2.1h114.9
		c1.2,0,2.3-1,2.3-2.1V54.3z"/>
</g>
</svg>
