<?xml version="1.0" encoding="utf-8"?>
<!-- Generator: Adobe Illustrator 19.0.0, SVG Export Plug-In . SVG Version: 6.00 Build 0)  -->
<svg version="1.1" id="Layer_1" xmlns="http://www.w3.org/2000/svg" xmlns:xlink="http://www.w3.org/1999/xlink" x="0px" y="0px"
	 viewBox="0 0 227.2 176.6" style="enable-background:new 0 0 227.2 176.6;" xml:space="preserve">
<style type="text/css">
	.st0{fill:#6FCE74;stroke:#6FCE74;stroke-width:3;stroke-miterlimit:10;}
	.st1{fill:#EDEDED;stroke:#4f8e51;stroke-width:2;stroke-miterlimit:10;}
</style>
<path id="XMLID_27_" class="st0" d="M220.4,36.2c14.3,59.2-22.1,118.8-81.3,133.1S20.3,147.2,6,88s40.4-43,99.6-57.3
	S206.1-23,220.4,36.2z"/>
<g id="XMLID_48_">
	<path id="XMLID_50_" class="st1" d="M166.6,88.7L90,143.4L57.2,138l5.5-32.8l76.5-54.7L166.6,88.7z M95.9,126.7l-15.5-21.6l-8.4,6
		l-1.4,8.4l10.1,1.7l-1.7,10.1l8.4,1.4L95.9,126.7z M139.5,64.3c-0.5-0.1-1,0-1.4,0.3l-49.9,35.6c-0.5,0.3-0.7,0.8-0.8,1.2
		c-0.2,1,0.4,1.9,1.4,2c0.5,0.1,1,0,1.4-0.3l49.9-35.6c0.5-0.3,0.7-0.8,0.8-1.2C141.1,65.3,140.5,64.5,139.5,64.3z M187.7,73.6
		l-15.3,10.9l-27.4-38.3l15.3-10.8c2.1-1.6,4.9-2.3,7.6-1.8c2.7,0.4,5.1,2,6.7,4.2l15.5,21.5c1.5,2.2,2.2,5,1.7,7.7
		C191.4,69.7,189.9,72.1,187.7,73.6z"/>
</g>
</svg>
