<?xml version="1.0" encoding="utf-8"?>
<!-- Generator: Adobe Illustrator 19.0.0, SVG Export Plug-In . SVG Version: 6.00 Build 0)  -->
<svg version="1.1" id="Layer_1" xmlns="http://www.w3.org/2000/svg" xmlns:xlink="http://www.w3.org/1999/xlink" x="0px" y="0px"
	 viewBox="0 0 227.2 176.6" style="enable-background:new 0 0 227.2 176.6;" xml:space="preserve">
<style type="text/css">
	.st0{fill:#6695CC;stroke:#6695CC;stroke-width:3;stroke-miterlimit:10;}
	.st1{fill:#EDEDED;stroke:#4e7499;stroke-width:2;stroke-miterlimit:10;}
</style>
<path id="XMLID_47_" class="st0" d="M220.4,36c14.3,59.2-22.1,118.8-81.3,133.1C79.9,183.5,20.3,147.1,6,87.8s40.4-43,99.6-57.3
	S206.1-23.2,220.4,36z"/>
<g id="XMLID_79_">
	<path id="XMLID_88_" class="st1" d="M163.2,151.5c-2.3,0-4.5-0.9-6.1-2.6l-23.1-23c-7.9,5.5-17.3,8.3-26.9,8.3
		c-26.2,0-47.4-21.2-47.4-47.4S81,39.5,107.2,39.5s47.4,21.2,47.4,47.4c0,9.6-2.9,19-8.3,26.9l23.1,23.1c1.5,1.5,2.5,3.8,2.5,6.1
		C171.8,147.6,167.9,151.5,163.2,151.5z M107.2,56.7C90.5,56.7,77,70.2,77,86.8S90.5,117,107.2,117s30.2-13.5,30.2-30.2
		S123.8,56.7,107.2,56.7z M128.7,89c0,1.1-1,2.2-2.2,2.2h-15.1v15.1c0,1.1-1,2.2-2.2,2.2H105c-1.1,0-2.2-1-2.2-2.2V91.2H87.8
		c-1.1,0-2.2-1-2.2-2.2v-4.3c0-1.1,1-2.2,2.2-2.2h15.1V67.5c0-1.1,1-2.2,2.2-2.2h4.3c1.1,0,2.2,1,2.2,2.2v15.1h15.1
		c1.1,0,2.2,1,2.2,2.2V89z"/>
</g>
</svg>
